<svg xmlns="http://www.w3.org/2000/svg" version="1.1" xmlns:xlink="http://www.w3.org/1999/xlink" xmlns:svgjs="http://svgjs.dev/svgjs" width="1000" height="1000" viewBox="0 0 1000 1000"><rect width="1000" height="1000" fill="#ffffff"></rect><g transform="matrix(0.7,0,0,0.7,149.57575760062417,282.1265587044535)"><svg viewBox="0 0 396 247" data-background-color="#ffffff" preserveAspectRatio="xMidYMid meet" height="623" width="1000" xmlns="http://www.w3.org/2000/svg" xmlns:xlink="http://www.w3.org/1999/xlink"><g id="tight-bounds" transform="matrix(1,0,0,1,0.2400000140675047,-0.09999999999999432)"><svg viewBox="0 0 395.52 247.2" height="247.2" width="395.52"><g><svg viewBox="0 0 395.52 247.2" height="247.2" width="395.52"><g transform="matrix(1,0,0,1,0,84.74842196378515)"><svg viewBox="0 0 395.52 77.7031560724297" height="77.7031560724297" width="395.52"><g><svg viewBox="0 0 397.4975999999999 78.09167185279185" height="77.7031560724297" width="395.52"><g><svg viewBox="0 0 397.4975999999999 78.09167185279185" height="78.09167185279185" width="397.4975999999999"><g id="textblocktransform"><svg viewBox="0 0 397.4975999999999 78.09167185279185" height="78.09167185279185" width="397.4975999999999" id="textblock"><g><rect width="397.4975999999999" height="3.6666699507763796" x="0" y="44.978368618149624" fill="#35185a" opacity="1" stroke-width="0" stroke="transparent" fill-opacity="1" class="rect-o-0" data-fill-palette-color="primary" rx="1%" id="o-0" data-palette-color="#35185a"></rect></g><g transform="matrix(1,0,0,1,0.9887999999999693,0)"><svg viewBox="0 0 395.52 40.658993021685305" height="40.658993021685305" width="395.52"><g transform="matrix(1,0,0,1,0,0)"><svg width="395.52" viewBox="-0.10000000149011612 -33.45000076293945 325.3399963378906 33.45000076293945" height="40.658993021685305" data-palette-color="#35185a"><path d="M10.69-33.45L18.21-33.45Q20.68-33.45 22.68-32.71 24.68-31.98 26.09-30.71 27.49-29.44 28.25-27.75 29-26.05 29-24.15L29-24.15 29-9.3Q29-7.4 28.25-5.7 27.49-4 26.09-2.73 24.68-1.46 22.68-0.73 20.68 0 18.21 0L18.21 0 10.69 0Q8.23 0 6.23-0.73 4.22-1.46 2.82-2.73 1.42-4 0.66-5.7-0.1-7.4-0.1-9.3L-0.1-9.3-0.1-24.15Q-0.1-26.05 0.66-27.75 1.42-29.44 2.82-30.71 4.22-31.98 6.23-32.71 8.23-33.45 10.69-33.45L10.69-33.45ZM19.09-18.41L19.46-17.09 19.46-11.06 22.05-11.06 22.05-17.36 21.19-19.6 18.41-20.61 21.09-21.9 21.85-24.1 21.85-26.81 21.56-28.86 19.95-30.91 17.5-31.25 8.4-31.25 8.4-11.06 11.01-11.06 11.01-19.19 17.36-19.19 19.09-18.41ZM11.01-28.66L17.36-28.66 19.09-27.91 19.26-26.49 19.26-23.9 18.9-22.56 17.36-21.8 11.01-21.8 11.01-28.66ZM39.6-33.45L47.12-33.45Q49.58-33.45 51.58-32.71 53.59-31.98 54.99-30.71 56.39-29.44 57.15-27.75 57.91-26.05 57.91-24.15L57.91-24.15 57.91-9.3Q57.91-7.4 57.15-5.7 56.39-4 54.99-2.73 53.59-1.46 51.58-0.73 49.58 0 47.12 0L47.12 0 39.6 0Q37.13 0 35.13-0.73 33.13-1.46 31.72-2.73 30.32-4 29.56-5.7 28.81-7.4 28.81-9.3L28.81-9.3 28.81-24.15Q28.81-26.05 29.56-27.75 30.32-29.44 31.72-30.71 33.13-31.98 35.13-32.71 37.13-33.45 39.6-33.45L39.6-33.45ZM52.15-14.99L52.15-27.29 51.8-29.35 50.27-30.91 47.75-31.25 41.21-31.25 38.72-30.91 37.16-29.35 36.86-27.29 36.86-14.99 37.16-12.89 38.77-11.35 41.21-11.06 47.75-11.06 50.27-11.35 51.8-12.89 52.15-14.99ZM49.56-15.26L49.22-13.89 47.6-13.65 41.35-13.65 39.77-13.89 39.4-15.36 39.4-27.05 39.65-28.39 41.35-28.66 47.6-28.66 49.31-28.39 49.56-26.95 49.56-15.26ZM78.56-30.91L75.7-31.25 69.82-31.25 67.3-30.96 65.77-29.39 65.4-27.34 65.4-14.94 65.77-12.89 67.35-11.35 69.82-11.06 75.7-11.06 78.56-11.4 77.95-14.04 75.65-13.65 69.97-13.65 68.35-13.89 68.01-15.36 68.01-27.1 68.26-28.44 69.97-28.71 75.56-28.71 78.07-28.3 78.56-30.91ZM68.5-33.45L76.02-33.45Q78.49-33.45 80.49-32.71 82.49-31.98 83.89-30.71 85.3-29.44 86.05-27.75 86.81-26.05 86.81-24.15L86.81-24.15 86.81-9.3Q86.81-7.4 86.05-5.7 85.3-4 83.89-2.73 82.49-1.46 80.49-0.73 78.49 0 76.02 0L76.02 0 68.5 0Q66.04 0 64.03-0.73 62.03-1.46 60.63-2.73 59.22-4 58.47-5.7 57.71-7.4 57.71-9.3L57.71-9.3 57.71-24.15Q57.71-26.05 58.47-27.75 59.22-29.44 60.63-30.71 62.03-31.98 64.03-32.71 66.04-33.45 68.5-33.45L68.5-33.45ZM107.76-11.06L107.76-13.65 100.26-13.65 100.26-31.25 97.67-31.25 97.67-11.06 107.76-11.06ZM97.4-33.45L104.92-33.45Q107.39-33.45 109.39-32.71 111.39-31.98 112.8-30.71 114.2-29.44 114.96-27.75 115.72-26.05 115.72-24.15L115.72-24.15 115.72-9.3Q115.72-7.4 114.96-5.7 114.2-4 112.8-2.73 111.39-1.46 109.39-0.73 107.39 0 104.92 0L104.92 0 97.4 0Q94.94 0 92.94-0.73 90.93-1.46 89.53-2.73 88.13-4 87.37-5.7 86.61-7.4 86.61-9.3L86.61-9.3 86.61-24.15Q86.61-26.05 87.37-27.75 88.13-29.44 89.53-30.71 90.93-31.98 92.94-32.71 94.94-33.45 97.4-33.45L97.4-33.45ZM130.12-13.65L124.36-13.65 124.36-11.06 138.47-11.06 138.47-13.65 132.73-13.65 132.73-28.66 138.47-28.66 138.47-31.25 124.36-31.25 124.36-28.66 130.12-28.66 130.12-13.65ZM126.31-33.45L133.83-33.45Q136.29-33.45 138.3-32.71 140.3-31.98 141.7-30.71 143.11-29.44 143.86-27.75 144.62-26.05 144.62-24.15L144.62-24.15 144.62-9.3Q144.62-7.4 143.86-5.7 143.11-4 141.7-2.73 140.3-1.46 138.3-0.73 136.29 0 133.83 0L133.83 0 126.31 0Q123.84 0 121.84-0.73 119.84-1.46 118.43-2.73 117.03-4 116.27-5.7 115.52-7.4 115.52-9.3L115.52-9.3 115.52-24.15Q115.52-26.05 116.27-27.75 117.03-29.44 118.43-30.71 119.84-31.98 121.84-32.71 123.84-33.45 126.31-33.45L126.31-33.45ZM167.27-11.06L167.27-27.34 166.93-29.39 165.37-30.96 162.88-31.25 156.77-31.25 152.38-30.64 152.38-11.06 154.97-11.06 154.97-28.39 156.87-28.71 162.73-28.71 164.42-28.44 164.66-27 164.66-11.06 167.27-11.06ZM155.21-33.45L162.73-33.45Q165.2-33.45 167.2-32.71 169.2-31.98 170.61-30.71 172.01-29.44 172.77-27.75 173.52-26.05 173.52-24.15L173.52-24.15 173.52-9.3Q173.52-7.4 172.77-5.7 172.01-4 170.61-2.73 169.2-1.46 167.2-0.73 165.2 0 162.73 0L162.73 0 155.21 0Q152.75 0 150.74-0.73 148.74-1.46 147.34-2.73 145.93-4 145.18-5.7 144.42-7.4 144.42-9.3L144.42-9.3 144.42-24.15Q144.42-26.05 145.18-27.75 145.93-29.44 147.34-30.71 148.74-31.98 150.74-32.71 152.75-33.45 155.21-33.45L155.21-33.45ZM184.63-28.34L186.22-28.71 192.56-28.71 195.08-28.3 195.57-30.91 192.73-31.25 186.17-31.25 183.68-30.86 182.11-29.3 181.77-27.25 181.77-14.99 182.11-12.89 183.73-11.35 186.17-11.06 192.27-11.06 194.74-11.35 196.32-12.89 196.66-14.99 196.66-21.41 189.58-21.41 189.58-18.8 194.08-18.8 194.08-15.36Q193.95-14.97 193.91-14.62 193.86-14.28 193.74-13.89L193.74-13.89 192.12-13.65 186.22-13.65 184.73-13.89 184.38-15.45 184.38-27 184.63-28.34ZM184.12-33.45L191.64-33.45Q194.1-33.45 196.1-32.71 198.11-31.98 199.51-30.71 200.91-29.44 201.67-27.75 202.43-26.05 202.43-24.15L202.43-24.15 202.43-9.3Q202.43-7.4 201.67-5.7 200.91-4 199.51-2.73 198.11-1.46 196.1-0.73 194.1 0 191.64 0L191.64 0 184.12 0Q181.65 0 179.65-0.73 177.65-1.46 176.24-2.73 174.84-4 174.08-5.7 173.32-7.4 173.32-9.3L173.32-9.3 173.32-24.15Q173.32-26.05 174.08-27.75 174.84-29.44 176.24-30.71 177.65-31.98 179.65-32.71 181.65-33.45 184.12-33.45L184.12-33.45ZM220.22-33.45L227.74-33.45Q230.2-33.45 232.21-32.71 234.21-31.98 235.61-30.71 237.02-29.44 237.77-27.75 238.53-26.05 238.53-24.15L238.53-24.15 238.53-9.3Q238.53-7.4 237.77-5.7 237.02-4 235.61-2.73 234.21-1.46 232.21-0.73 230.2 0 227.74 0L227.74 0 220.22 0Q217.75 0 215.75-0.73 213.75-1.46 212.35-2.73 210.94-4 210.19-5.7 209.43-7.4 209.43-9.3L209.43-9.3 209.43-24.15Q209.43-26.05 210.19-27.75 210.94-29.44 212.35-30.71 213.75-31.98 215.75-32.71 217.75-33.45 220.22-33.45L220.22-33.45ZM232.04-23.56L232.04-27.29 231.67-29.35 230.13-30.91 227.62-31.25 221.73-31.25 219.22-30.91 217.68-29.35 217.29-26.76 219.88-26.49 220.17-28.39 221.88-28.66 227.47-28.66 229.18-28.39 229.42-26.95 229.42-23.9Q229.3-23.51 229.25-23.17 229.2-22.83 229.08-22.46L229.08-22.46 227.47-22.05 221.64-22.05 218.78-21.24 217.68-20.14 217.39-18.09 217.39-12.6 218.93-11.06 231.18-11.06 231.18-13.6 219.93-13.6 219.93-17.8Q220-18.09 220.02-18.47 220.05-18.85 220.12-19.19L220.12-19.19 221.88-19.6 227.74-19.6 230.57-20.41 231.67-21.46 232.04-23.56ZM249.12-33.45L256.64-33.45Q259.11-33.45 261.11-32.71 263.11-31.98 264.52-30.71 265.92-29.44 266.68-27.75 267.43-26.05 267.43-24.15L267.43-24.15 267.43-9.3Q267.43-7.4 266.68-5.7 265.92-4 264.52-2.73 263.11-1.46 261.11-0.73 259.11 0 256.64 0L256.64 0 249.12 0Q246.66 0 244.66-0.73 242.65-1.46 241.25-2.73 239.85-4 239.09-5.7 238.33-7.4 238.33-9.3L238.33-9.3 238.33-24.15Q238.33-26.05 239.09-27.75 239.85-29.44 241.25-30.71 242.65-31.98 244.66-32.71 246.66-33.45 249.12-33.45L249.12-33.45ZM261.53-14.99L261.53-27.29 261.18-29.35 259.62-30.91 257.13-31.25 250.59-31.25 248.07-30.91 246.54-29.35 246.24-27.29 246.24-14.99 246.54-12.89 248.12-11.35 250.59-11.06 257.13-11.06 259.62-11.35 261.18-12.89 261.53-14.99ZM258.94-15.26L258.57-13.89 256.98-13.65 250.73-13.65 249.12-13.89 248.78-15.36 248.78-27.05 249.03-28.39 250.73-28.66 256.98-28.66 258.69-28.39 258.94-26.95 258.94-15.26ZM278.03-33.45L285.55-33.45Q288.01-33.45 290.01-32.71 292.02-31.98 293.42-30.71 294.82-29.44 295.58-27.75 296.34-26.05 296.34-24.15L296.34-24.15 296.34-9.3Q296.34-7.4 295.58-5.7 294.82-4 293.42-2.73 292.02-1.46 290.01-0.73 288.01 0 285.55 0L285.55 0 278.03 0Q275.56 0 273.56-0.73 271.56-1.46 270.15-2.73 268.75-4 267.99-5.7 267.24-7.4 267.24-9.3L267.24-9.3 267.24-24.15Q267.24-26.05 267.99-27.75 268.75-29.44 270.15-30.71 271.56-31.98 273.56-32.71 275.56-33.45 278.03-33.45L278.03-33.45ZM289.84-23.56L289.84-27.29 289.48-29.35 287.94-30.91 285.42-31.25 279.54-31.25 277.03-30.91 275.49-29.35 275.1-26.76 277.68-26.49 277.98-28.39 279.69-28.66 285.28-28.66 286.99-28.39 287.23-26.95 287.23-23.9Q287.11-23.51 287.06-23.17 287.01-22.83 286.89-22.46L286.89-22.46 285.28-22.05 279.44-22.05 276.59-21.24 275.49-20.14 275.19-18.09 275.19-12.6 276.73-11.06 288.99-11.06 288.99-13.6 277.73-13.6 277.73-17.8Q277.81-18.09 277.83-18.47 277.86-18.85 277.93-19.19L277.93-19.19 279.69-19.6 285.55-19.6 288.38-20.41 289.48-21.46 289.84-23.56ZM306.93-33.45L314.45-33.45Q316.92-33.45 318.92-32.71 320.92-31.98 322.32-30.71 323.73-29.44 324.48-27.75 325.24-26.05 325.24-24.15L325.24-24.15 325.24-9.3Q325.24-7.4 324.48-5.7 323.73-4 322.32-2.73 320.92-1.46 318.92-0.73 316.92 0 314.45 0L314.45 0 306.93 0Q304.46 0 302.46-0.73 300.46-1.46 299.06-2.73 297.65-4 296.9-5.7 296.14-7.4 296.14-9.3L296.14-9.3 296.14-24.15Q296.14-26.05 296.9-27.75 297.65-29.44 299.06-30.71 300.46-31.98 302.46-32.71 304.46-33.45 306.93-33.45L306.93-33.45ZM318.48-14.94L318.48-18.6 318.14-20.65Q318.01-20.73 317.84-20.9 317.67-21.07 317.55-21.19L317.55-21.19 318.14-21.8 318.48-23.85 318.48-27.25 318.14-29.3 316.6-30.86 314.08-31.2 307.59-31.2 305.1-30.86 303.54-29.3 303.1-26.71 305.73-26.44 306.05-28.34 307.74-28.59 313.94-28.59 315.65-28.34 315.89-26.9 315.89-23.95Q315.84-23.66 315.73-23.28 315.62-22.9 315.55-22.61L315.55-22.61 313.94-22.34 307.15-22.34 307.15-20.04 313.99-20.04 315.65-19.85 315.89-18.41 315.89-15.21Q315.84-14.89 315.73-14.53 315.62-14.16 315.55-13.84L315.55-13.84 313.94-13.6 307.64-13.6 306.15-13.84 305.73-15.75 303.1-15.5 303.54-12.84 305.1-11.3 307.59-11.01 314.08-11.01 316.6-11.3 318.14-12.84 318.48-14.94Z" opacity="1" transform="matrix(1,0,0,1,0,0)" fill="#35185a" class="undefined-text-0" data-fill-palette-color="primary" id="text-0"></path></svg></g></svg></g><g transform="matrix(1,0,0,1,0,52.96441416539032)"><svg viewBox="0 0 157.33788863023426 25.127257687401517" height="25.127257687401517" width="157.33788863023426"><g transform="matrix(1,0,0,1,0,0)"><svg width="157.33788863023426" viewBox="3.690000057220459 -38.75 318.3999938964844 50.86000061035156" height="25.127257687401517" data-palette-color="#35185a"><path d="M24.19-14.43L24.19-32.71Q24.39-33.52 24.54-33.89 24.68-34.25 25.17-34.38L25.17-34.38 31.49-35.86Q31.79-35.96 32.13-35.96L32.13-35.96Q32.45-35.96 32.59-35.74 32.74-35.52 32.74-34.91L32.74-34.91Q32.59-34.33 32.5-33.12 32.4-31.91 32.35-30.47 32.3-29.03 32.28-27.58 32.25-26.12 32.25-25.05L32.25-25.05 32.25-23.71Q32.25-22.19 32.23-20.41 32.2-18.63 32.17-16.8 32.13-14.97 32.08-13.18 32.03-11.4 31.98-9.84L31.98-9.84 31.84-5.66Q31.81-5.54 31.81-5.44 31.81-5.35 31.81-5.25L31.81-5.25 31.81-4.88Q31.81-4.47 31.82-4.19 31.84-3.91 31.84-3.69L31.84-3.69Q31.84-3.44 31.8-3.25 31.76-3.05 31.62-2.87 31.47-2.69 31.21-2.49 30.96-2.29 30.52-2L30.52-2Q30.27-1.83 29.71-1.5 29.15-1.17 28.47-0.76 27.78-0.34 27.05 0.1 26.32 0.54 25.71 0.89 25.1 1.25 24.72 1.46 24.34 1.68 24.34 1.68L24.34 1.68 13.01-15.75 11.99-1.46Q11.96-1.27 11.9-1.05 11.84-0.83 11.57-0.71L11.57-0.71Q11.35-0.61 10.82-0.4 10.28-0.2 9.56 0.07 8.84 0.34 8.04 0.62 7.25 0.9 6.54 1.14 5.83 1.37 5.29 1.51 4.74 1.66 4.54 1.66L4.54 1.66Q4.17 1.66 3.93 1.46 3.69 1.27 3.69 0.76L3.69 0.76Q3.93-2.29 4.25-5.9 4.57-9.5 4.86-13.28 5.15-17.07 5.41-20.84 5.66-24.61 5.83-28L5.83-28Q5.83-28.1 5.53-28.65 5.22-29.2 4.85-29.85 4.47-30.49 4.16-31.07 3.86-31.64 3.86-31.79L3.86-31.79Q3.86-31.96 4.04-32.1 4.22-32.25 4.64-32.5L4.64-32.5 11.16-36.18Q11.23-36.18 11.36-36.21 11.5-36.23 11.6-36.23L11.6-36.23Q11.87-36.23 12.02-36.17 12.18-36.11 12.35-35.79L12.35-35.79 24.19-14.43ZM50.02-34.99L50.02-34.99Q50-34.4 49.92-33.53 49.85-32.67 49.77-31.7 49.68-30.74 49.57-29.75 49.46-28.76 49.37-27.93 49.29-27.1 49.24-26.5 49.19-25.9 49.19-25.73L49.19-25.73Q49.09-24.22 48.98-22.92 48.87-21.63 48.75-20.36 48.63-19.09 48.5-17.74 48.36-16.38 48.22-14.75 48.07-13.11 47.89-11.11 47.7-9.11 47.51-6.52L47.51-6.52 57.61-7.54Q58.3-7.62 58.74-7.62L58.74-7.62Q59.27-7.62 59.41-7.45 59.54-7.28 59.54-6.91L59.54-6.91Q59.54-6.86 59.52-6.77 59.49-6.69 59.41-6.45 59.32-6.2 59.16-5.74 59.01-5.27 58.74-4.44L58.74-4.44 58.2-2.83Q57.93-2.05 57.7-1.43 57.47-0.81 57.13-0.35 56.78 0.1 56.27 0.37 55.76 0.63 54.95 0.71L54.95 0.71Q54.44 0.76 53.56 0.79 52.68 0.83 51.54 0.87 50.39 0.9 49.06 0.95 47.73 1 46.34 1.07L46.34 1.07Q44.97 1.12 43.58 1.14 42.19 1.15 40.94 1.17 39.69 1.2 38.64 1.22 37.6 1.25 36.91 1.27L36.91 1.27Q36.28 1.27 36 1.17 35.72 1.07 35.72 0.85L35.72 0.85Q35.72 0.59 35.89 0.09 36.06-0.42 36.33-1.04 36.59-1.66 36.92-2.33 37.25-3 37.57-3.64L37.57-3.64 38.23-12.35Q38.43-14.58 38.62-16.87 38.82-19.17 38.96-21.31L38.96-21.31 39.38-27.78Q39.52-30.08 39.57-31.12 39.62-32.15 39.62-32.25L39.62-32.25Q39.67-32.69 39.69-32.98 39.72-33.28 39.78-33.47 39.84-33.67 39.96-33.76 40.09-33.86 40.33-33.91L40.33-33.91 48.9-35.94Q49.17-36.04 49.56-36.04L49.56-36.04Q49.83-36.04 49.94-35.88 50.05-35.72 50.05-35.28L50.05-35.28Q50.05-35.23 50.03-35.14 50.02-35.06 50.02-34.99ZM92.06-25.37L92.06-25.37Q92.04-23.27 91.66-21.61 91.28-19.95 90.58-18.62 89.89-17.29 88.9-16.22 87.91-15.16 86.64-14.23L86.64-14.23Q84.2-12.48 81.29-11.58 78.39-10.69 75.46-10.69L75.46-10.69Q74.97-10.69 74.49-10.72 74.02-10.74 73.53-10.79L73.53-10.79 72.72-1.88 72.31-1.12Q72.26-1.03 71.48-0.73 70.7-0.44 69.53-0.05L69.53-0.05 67.99 0.46Q67.26 0.73 66.69 0.95 66.13 1.17 65.64 1.34 65.16 1.51 64.69 1.6 64.23 1.68 63.72 1.68L63.72 1.68Q63.37 1.68 63.18 1.51 62.98 1.34 62.98 0.85L62.98 0.85 63.25-3.32Q63.33-4.57 63.43-5.82 63.54-7.08 63.64-8.69L63.64-8.69 64.11-14.53Q64.25-16.31 64.37-18.09 64.5-19.87 64.62-21.48 64.74-23.1 64.84-24.5 64.94-25.9 65.01-26.95L65.01-26.95Q63.69-26.66 62.9-26.53 62.1-26.39 61.69-26.39L61.69-26.39Q61.18-26.39 61.18-26.83L61.18-26.83Q61.52-28.03 61.81-29.17L61.81-29.17Q62.08-30.15 62.36-31.19 62.64-32.23 62.84-32.93L62.84-32.93Q62.96-33.37 63.12-33.61 63.28-33.84 63.53-33.97 63.79-34.11 64.19-34.22 64.59-34.33 65.18-34.52L65.18-34.52Q65.64-34.67 66.49-34.85 67.33-35.03 68.42-35.22 69.5-35.4 70.77-35.57 72.04-35.74 73.35-35.88 74.65-36.01 75.92-36.1 77.19-36.18 78.32-36.18L78.32-36.18Q81.1-36.18 83.59-35.67 86.08-35.16 87.96-33.92 89.84-32.69 90.95-30.6 92.06-28.52 92.06-25.37ZM74.21-18.04L74.21-18.04Q74.21-17.77 74.31-17.57 74.41-17.36 74.85-17.36L74.85-17.36Q75.53-17.36 76.47-17.66 77.41-17.97 78.35-18.58 79.29-19.19 80.1-20.09 80.9-21 81.32-22.22L81.32-22.22Q81.49-22.71 81.6-23.46 81.71-24.22 81.71-25.24L81.71-25.24Q81.71-26.95 80.52-27.76 79.34-28.56 77.44-28.56L77.44-28.56Q77.12-28.56 76.72-28.53 76.31-28.49 75.96-28.39 75.61-28.3 75.36-28.16 75.12-28.03 75.09-27.81L75.09-27.81 75.04-27.27Q75.02-26.95 74.95-26.23 74.87-25.51 74.79-24.58 74.7-23.66 74.62-22.63 74.53-21.61 74.45-20.68 74.36-19.75 74.3-19.04 74.24-18.33 74.21-18.04ZM103.31-7.25L103.31-7.25Q103.31-8.01 103.37-8.7 103.43-9.4 103.7-10.13 103.97-10.86 104.54-11.66 105.12-12.45 106.12-13.43 107.12-14.4 108.64-15.6 110.17-16.8 112.37-18.31L112.37-18.31Q110.83-20.36 110.1-22.44 109.37-24.51 109.37-26.49L109.37-26.49Q109.37-28.32 110.23-29.93 111.1-31.54 112.78-32.75 114.47-33.96 116.92-34.66 119.37-35.35 122.57-35.35L122.57-35.35Q123.23-35.35 124.07-35.19 124.92-35.03 125.78-34.69 126.65-34.35 127.48-33.79 128.31-33.23 128.96-32.41 129.6-31.59 130.01-30.52 130.41-29.44 130.41-28.05L130.41-28.05Q130.41-26.76 129.98-25.72 129.56-24.68 128.69-23.62 127.82-22.56 126.49-21.35 125.16-20.14 123.35-18.53L123.35-18.53 129.16-13.87Q129.43-13.62 129.69-13.4 129.95-13.18 130.24-13.21L130.24-13.21Q130.36-13.4 130.5-13.43 130.63-13.45 130.78-13.45L130.78-13.45 136.32-18.6Q136.76-18.43 137.43-17.92 138.1-17.41 138.72-16.77 139.35-16.14 139.78-15.47 140.22-14.79 140.22-14.33L140.22-14.33Q140.22-14.04 140.13-13.87L140.13-13.87 135.71-9.2 135.98-8.98Q136.2-8.84 136.5-8.61 136.81-8.37 137.18-8.09 137.56-7.81 137.99-7.51 138.42-7.2 138.86-6.91L138.86-6.91Q139.1-6.74 139.15-6.54 139.2-6.35 139.2-6.3L139.2-6.3Q139.2-5.96 138.91-5.44 138.61-4.93 138.16-4.35 137.71-3.76 137.16-3.14 136.61-2.51 136.07-1.97 135.54-1.42 135.07-0.96 134.61-0.51 134.37-0.29L134.37-0.29Q134.12-0.05 133.85-0.05L133.85-0.05Q133.66-0.05 133.51-0.2L133.51-0.2 128.6-3.2Q126.14-1.88 124.27-1.03 122.4-0.17 120.78 0.34 119.16 0.85 117.6 1.05 116.05 1.25 114.2 1.25L114.2 1.25Q112.15 1.25 110.2 0.73 108.24 0.22 106.72-0.84 105.19-1.9 104.25-3.49 103.31-5.08 103.31-7.25ZM113.91-8.81L113.91-8.81Q113.91-8.28 114.05-7.73 114.2-7.18 114.57-6.73 114.93-6.27 115.57-5.98 116.2-5.69 117.2-5.69L117.2-5.69Q117.52-5.69 118.08-5.74 118.64-5.79 119.35-6.01 120.06-6.23 120.93-6.68 121.79-7.13 122.74-7.93L122.74-7.93 116.93-13.57Q116.4-13.28 115.86-12.92 115.32-12.55 114.88-12 114.44-11.45 114.17-10.68 113.91-9.91 113.91-8.81ZM120.67-29.64L120.67-29.64Q119.89-29.64 119.31-29.39 118.74-29.15 118.37-28.75 118.01-28.34 117.82-27.82 117.64-27.29 117.64-26.71L117.64-26.71Q117.64-25.81 118.04-24.87 118.45-23.93 119.23-23.22L119.23-23.22Q121.13-24.49 121.95-25.7 122.77-26.9 122.77-27.83L122.77-27.83Q122.77-28.66 122.21-29.15 121.65-29.64 120.67-29.64ZM154.45-0.37L154.04-9.08Q154.04-9.11 154.03-9.13 154.01-9.16 154.01-9.18L154.01-9.18Q154.01-9.59 154.45-9.59L154.45-9.59Q154.67-9.59 154.94-9.38L154.94-9.38Q156.26-8.13 157.87-7.4 159.48-6.67 161.39-6.67L161.39-6.67Q161.9-6.67 162.56-6.77 163.22-6.88 163.8-7.14 164.39-7.4 164.79-7.81 165.19-8.23 165.19-8.86L165.19-8.86Q165.19-9.57 164.85-10.13 164.51-10.69 163.95-11.08L163.95-11.08Q163.73-11.23 163.29-11.57 162.85-11.91 162.29-12.35 161.73-12.79 161.12-13.29 160.51-13.79 159.96-14.25 159.41-14.7 158.97-15.06 158.53-15.43 158.31-15.63L158.31-15.63Q156.87-16.7 156.03-17.8 155.19-18.9 154.75-20.09 154.31-21.29 154.18-22.57 154.06-23.85 154.06-25.29L154.06-25.29Q154.06-27.44 155.09-29.37 156.11-31.3 157.98-32.73 159.85-34.16 162.46-35 165.07-35.84 168.27-35.84L168.27-35.84Q168.66-35.84 169.44-35.75 170.22-35.67 171.16-35.47 172.1-35.28 173.08-34.94 174.06-34.59 174.86-34.06L174.86-34.06Q175.13-33.86 175.29-33.67 175.45-33.47 175.5-33.06L175.5-33.06Q175.62-31.08 175.69-29.16 175.77-27.25 175.89-25.1L175.89-25.1Q175.89-24.68 175.72-24.55 175.55-24.41 175.28-24.41L175.28-24.41Q175.01-24.41 174.86-24.56L174.86-24.56Q174.15-25.27 173.4-25.95 172.64-26.64 171.81-27.16 170.98-27.69 170.04-28 169.1-28.32 168-28.32L168-28.32Q167.34-28.32 166.68-28.21 166.03-28.1 165.49-27.81 164.95-27.51 164.62-27 164.29-26.49 164.29-25.71L164.29-25.71Q164.29-24.88 164.5-24.27 164.71-23.66 165.54-23.12L165.54-23.12 171.4-19.14Q173.01-17.99 174.01-16.86 175.01-15.72 175.57-14.6 176.13-13.48 176.34-12.39 176.55-11.3 176.55-10.25L176.55-10.25Q176.55-8.54 175.99-7.03 175.42-5.52 174.45-4.24 173.47-2.95 172.17-1.94 170.86-0.93 169.37-0.21 167.88 0.51 166.28 0.89 164.68 1.27 163.14 1.27L163.14 1.27Q161.95 1.27 160.79 1.23 159.63 1.2 158.53 1.04 157.43 0.88 156.41 0.55 155.38 0.22 154.45-0.37L154.45-0.37ZM190.58-17.41L190.51-17.04Q190.36-14.7 190.25-13.23 190.14-11.77 190.07-10.85 190-9.94 189.95-9.41 189.9-8.89 189.88-8.42L189.88-8.42Q190.44-6.96 191.54-6.04 192.63-5.13 194.17-5.13L194.17-5.13Q195.51-5.13 196.53-5.97 197.54-6.81 198.21-8.15 198.88-9.5 199.23-11.16 199.57-12.82 199.57-14.45L199.57-14.45Q199.57-15.8 199.34-16.94 199.1-18.09 198.64-18.93 198.18-19.78 197.48-20.25 196.78-20.73 195.83-20.73L195.83-20.73Q195.05-20.73 194.28-20.42 193.51-20.12 192.8-19.64 192.1-19.17 191.52-18.57 190.95-17.97 190.58-17.41L190.58-17.41ZM191-24.19L191-24.19Q193.05-25.59 195.3-26.42 197.54-27.25 199.98-27.25L199.98-27.25Q202.28-27.25 203.95-26.31 205.62-25.37 206.72-23.77 207.82-22.17 208.34-20.09 208.87-18.02 208.87-15.75L208.87-15.75Q208.87-13.77 208.48-11.74 208.09-9.72 207.33-7.82 206.57-5.93 205.45-4.27 204.33-2.61 202.88-1.38 201.42-0.15 199.64 0.56 197.86 1.27 195.78 1.27L195.78 1.27Q193.95 1.27 192.28 0.54 190.61-0.2 189.14-1.37L189.14-1.37Q189.14-1.25 189.08-0.48 189.02 0.29 188.92 1.39 188.83 2.49 188.7 3.75 188.58 5 188.48 6.1 188.39 7.2 188.32 7.97 188.26 8.74 188.26 8.86L188.26 8.86Q188.26 9.06 188.28 9.19 188.29 9.33 188.29 9.45L188.29 9.45Q188.29 9.64 188.11 9.78 187.92 9.91 187.29 10.08L187.29 10.08 180.87 11.72Q180.6 11.79 180.16 11.95 179.72 12.11 179.3 12.11L179.3 12.11Q178.96 12.11 178.71 11.94 178.45 11.77 178.45 11.3L178.45 11.3 181.43-24.44Q181.5-25.24 181.61-25.55 181.72-25.85 182.16-25.95L182.16-25.95Q184.38-26.39 186.73-26.84 189.07-27.29 191.29-28L191.29-28Q191.49-28 191.52-27.94 191.56-27.88 191.56-27.76L191.56-27.76Q191.56-27.71 191.55-27.61 191.54-27.51 191.47-27.17 191.41-26.83 191.3-26.14 191.19-25.44 191-24.19ZM226.49-27.25L226.49-27.25Q228.81-27.25 230.71-26.38 232.6-25.51 233.95-24.13 235.31-22.75 236.04-21.04 236.77-19.34 236.77-17.63L236.77-17.63Q236.77-16.11 235.84-14.59 234.92-13.06 233.24-11.84 231.57-10.62 229.23-9.86 226.88-9.11 224.08-9.11L224.08-9.11Q222.61-9.11 221-9.4L221-9.4Q221.1-8.35 221.61-7.59 222.12-6.84 222.9-6.35 223.69-5.86 224.67-5.63 225.66-5.4 226.71-5.4L226.71-5.4Q227.89-5.4 228.97-5.6 230.06-5.81 231.06-6.15 232.06-6.49 232.99-6.91 233.92-7.32 234.75-7.74L234.75-7.74Q234.97-7.79 235.12-7.82 235.28-7.86 235.43-7.86L235.43-7.86Q235.43-7.86 235.42-7.47 235.4-7.08 235.4-6.37 235.4-5.66 235.39-4.66 235.38-3.66 235.36-2.44L235.36-2.44Q235.43-2.32 235.45-2.2 235.48-2.08 235.48-2L235.48-2Q235.48-1.71 234.94-1.37 234.4-1.03 233.54-0.66 232.67-0.29 231.56 0.05 230.45 0.39 229.3 0.67 228.15 0.95 227.08 1.11 226.01 1.27 225.2 1.27L225.2 1.27Q222.56 1.27 220.08 0.35 217.61-0.56 215.69-2.27 213.77-3.98 212.63-6.42 211.48-8.86 211.48-11.91L211.48-11.91Q211.48-15.11 212.58-17.91 213.68-20.7 215.67-22.78 217.66-24.85 220.41-26.05 223.17-27.25 226.49-27.25ZM226.2-20.75L226.2-20.75Q225.2-20.75 224.36-20.32 223.52-19.9 222.82-19.1 222.12-18.31 221.61-17.2 221.1-16.09 220.78-14.75L220.78-14.75Q223.3-15.19 224.96-15.67 226.62-16.16 227.62-16.66 228.62-17.16 229.03-17.66 229.45-18.16 229.45-18.63L229.45-18.63Q229.45-19.07 229.12-19.46 228.79-19.85 228.3-20.14 227.81-20.43 227.24-20.59 226.66-20.75 226.2-20.75ZM254.37-27.25L254.37-27.25Q256.69-27.25 258.58-26.38 260.48-25.51 261.83-24.13 263.19-22.75 263.92-21.04 264.65-19.34 264.65-17.63L264.65-17.63Q264.65-16.11 263.72-14.59 262.79-13.06 261.12-11.84 259.45-10.62 257.11-9.86 254.76-9.11 251.96-9.11L251.96-9.11Q250.49-9.11 248.88-9.4L248.88-9.4Q248.98-8.35 249.49-7.59 250-6.84 250.78-6.35 251.56-5.86 252.55-5.63 253.54-5.4 254.59-5.4L254.59-5.4Q255.76-5.4 256.85-5.6 257.94-5.81 258.94-6.15 259.94-6.49 260.87-6.91 261.79-7.32 262.62-7.74L262.62-7.74Q262.84-7.79 263-7.82 263.16-7.86 263.31-7.86L263.31-7.86Q263.31-7.86 263.3-7.47 263.28-7.08 263.28-6.37 263.28-5.66 263.27-4.66 263.26-3.66 263.23-2.44L263.23-2.44Q263.31-2.32 263.33-2.2 263.36-2.08 263.36-2L263.36-2Q263.36-1.71 262.82-1.37 262.28-1.03 261.42-0.66 260.55-0.29 259.44 0.05 258.33 0.39 257.18 0.67 256.03 0.95 254.96 1.11 253.88 1.27 253.08 1.27L253.08 1.27Q250.44 1.27 247.96 0.35 245.49-0.56 243.57-2.27 241.65-3.98 240.5-6.42 239.36-8.86 239.36-11.91L239.36-11.91Q239.36-15.11 240.46-17.91 241.55-20.7 243.54-22.78 245.53-24.85 248.29-26.05 251.05-27.25 254.37-27.25ZM254.08-20.75L254.08-20.75Q253.08-20.75 252.24-20.32 251.39-19.9 250.7-19.1 250-18.31 249.49-17.2 248.98-16.09 248.66-14.75L248.66-14.75Q251.17-15.19 252.83-15.67 254.49-16.16 255.5-16.66 256.5-17.16 256.91-17.66 257.33-18.16 257.33-18.63L257.33-18.63Q257.33-19.07 257-19.46 256.67-19.85 256.18-20.14 255.69-20.43 255.12-20.59 254.54-20.75 254.08-20.75ZM267.21-11.91L267.21-11.91Q267.21-15.11 268.4-17.91 269.58-20.7 271.67-22.78 273.75-24.85 276.6-26.05 279.44-27.25 282.79-27.25L282.79-27.25Q285.06-27.25 286.67-26.88 288.28-26.51 289.31-26.06 290.33-25.61 290.81-25.23 291.28-24.85 291.28-24.83L291.28-24.83Q291.28-24.68 291.17-24.01 291.06-23.34 290.93-22.45 290.8-21.56 290.69-20.62 290.58-19.68 290.58-18.99L290.58-18.99Q290.58-18.87 290.5-18.73 290.43-18.58 290.11-18.58L290.11-18.58Q289.82-18.58 289.26-18.79 288.7-18.99 287.88-19.24 287.06-19.48 286-19.69 284.94-19.9 283.64-19.9L283.64-19.9Q282.03-19.9 280.74-19.32 279.44-18.75 278.52-17.74 277.59-16.72 277.09-15.33 276.59-13.94 276.59-12.33L276.59-12.33Q276.59-10.64 277.11-9.46 277.64-8.28 278.52-7.53 279.39-6.79 280.54-6.45 281.69-6.1 282.96-6.1L282.96-6.1Q284.42-6.1 285.91-6.51 287.4-6.91 288.72-7.64L288.72-7.64Q288.77-7.67 288.92-7.67L288.92-7.67Q289.04-7.67 289.1-7.54 289.16-7.42 289.16-7.08L289.16-7.08Q289.16-6.3 289.16-5.19 289.16-4.08 289.15-3.06 289.14-2.05 289.11-1.34 289.09-0.63 289.06-0.63L289.06-0.63Q288.18-0.05 287.16 0.32 286.13 0.68 285.05 0.9 283.96 1.12 282.86 1.2 281.76 1.27 280.74 1.27L280.74 1.27Q277.88 1.27 275.41 0.32 272.95-0.63 271.13-2.37 269.31-4.1 268.26-6.53 267.21-8.96 267.21-11.91ZM293.41 0.37L296.19-35.5Q296.19-35.64 296.18-35.77 296.16-35.89 296.16-36.01L296.16-36.01Q296.16-36.23 296.33-36.39 296.51-36.55 297.16-36.72L297.16-36.72 304.03-38.35Q304.29-38.4 304.73-38.57 305.17-38.75 305.59-38.75L305.59-38.75Q306.44-38.75 306.44-37.96L306.44-37.96Q306.44-37.92 306.37-36.96 306.3-36.01 306.17-34.59 306.05-33.18 305.91-31.51 305.76-29.83 305.61-28.32 305.47-26.81 305.34-25.67 305.22-24.54 305.15-24.19L305.15-24.19Q306.3-24.83 307.54-25.39 308.79-25.95 310.04-26.37 311.3-26.78 312.56-27.01 313.82-27.25 314.99-27.25L314.99-27.25Q316.48-27.25 317.77-26.82 319.06-26.39 320.03-25.4 320.99-24.41 321.54-22.81 322.09-21.22 322.09-18.9L322.09-18.9Q322.09-18.31 322.07-17.69 322.04-17.07 321.97-16.41L321.97-16.41 320.92-6.42Q320.8-5.4 320.77-4.28 320.75-3.17 320.75-2L320.75-2Q320.75-1.81 320.76-1.67 320.77-1.54 320.77-1.44L320.77-1.44Q320.77-1.22 320.59-1.1 320.41-0.98 319.77-0.78L319.77-0.78 313.79 0.88Q313.52 0.95 313.08 1.11 312.64 1.27 312.23 1.27L312.23 1.27Q311.81 1.27 311.59 1.09 311.37 0.9 311.37 0.37L311.37 0.37Q311.54-1.46 311.65-2.59 311.76-3.71 311.83-4.38 311.89-5.05 311.94-5.41 311.98-5.76 312.01-6.04 312.03-6.32 312.08-6.68 312.13-7.03 312.19-7.71 312.25-8.4 312.36-9.52 312.47-10.64 312.64-12.48L312.64-12.48Q312.74-13.45 312.85-14.42 312.96-15.38 312.96-16.19L312.96-16.19Q312.96-17.21 312.85-18.05 312.74-18.9 312.46-19.49 312.18-20.09 311.69-20.43 311.2-20.78 310.45-20.78L310.45-20.78Q309.88-20.78 308.92-20.53 307.96-20.29 306.99-19.73 306.03-19.17 305.28-18.25 304.54-17.33 304.44-15.99L304.44-15.99Q304.24-14.11 304.14-12.92 304.03-11.72 303.95-10.94 303.88-10.16 303.84-9.69 303.81-9.23 303.78-8.84L303.78-8.84Q303.76-8.72 303.71-8.24 303.66-7.76 303.59-7.1 303.51-6.45 303.44-5.7 303.37-4.96 303.31-4.3 303.24-3.64 303.21-3.16 303.17-2.69 303.17-2.56L303.17-2.56Q303.17-2.37 303.18-2.23 303.2-2.1 303.2-1.98L303.2-1.98Q303.2-1.78 303.01-1.65 302.83-1.51 302.19-1.34L302.19-1.34 295.82 0.88Q295.55 0.98 295.11 1.12 294.67 1.27 294.26 1.27L294.26 1.27Q293.89 1.27 293.65 1.06 293.41 0.85 293.41 0.37L293.41 0.37Z" opacity="1" transform="matrix(1,0,0,1,0,0)" fill="#35185a" class="undefined-text-1" data-fill-palette-color="secondary" id="text-1"></path></svg></g></svg></g></svg></g></svg></g></svg></g></svg></g></svg></g><defs></defs></svg><rect width="395.52" height="247.2" fill="none" stroke="none" visibility="hidden"></rect></g></svg></g></svg>